<?xml version="1.0" encoding="utf-8"?>
<!-- Generator: Adobe Illustrator 19.2.1, SVG Export Plug-In . SVG Version: 6.00 Build 0)  -->
<svg version="1.1" id="Слой_1" xmlns="http://www.w3.org/2000/svg" xmlns:xlink="http://www.w3.org/1999/xlink" x="0px" y="0px"
	 viewBox="0 0 49 49" style="enable-background:new 0 0 49 49;" xml:space="preserve">
<style type="text/css">
	.st0{fill:#020202;}
</style>
<path class="st0" d="M24.5,45.6C12.7,45.6,3,36,3,24.1S12.7,2.7,24.5,2.7S46,12.3,46,24.1S36.3,45.6,24.5,45.6z M24.5,6.7
	C14.9,6.7,7,14.5,7,24.1c0,9.6,7.8,17.5,17.5,17.5c9.6,0,17.5-7.8,17.5-17.5C42,14.5,34.1,6.7,24.5,6.7z"/>
<polygon class="st0" points="32.6,32.9 22.5,25.5 22.5,14.4 26.5,14.4 26.5,23.5 35,29.6 "/>
</svg>
