<?xml version="1.0" encoding="utf-8"?>
<!-- Generator: Adobe Illustrator 19.2.1, SVG Export Plug-In . SVG Version: 6.00 Build 0)  -->
<svg version="1.1" id="Слой_1" xmlns="http://www.w3.org/2000/svg" xmlns:xlink="http://www.w3.org/1999/xlink" x="0px" y="0px"
	 viewBox="0 0 1001 92.9" style="enable-background:new 0 0 1001 92.9;" xml:space="preserve">
<style type="text/css">
	.st0{fill:#030304;}
	.st1{fill:#E52527;}
	.st2{fill:#A3A3A2;}
</style>
<g>
	<path class="st0" d="M364.5,7.3h56.2l0.9,0.9l-11,9.9l-19.6,0.1l0.1,35.2c-3.6,5.1-6.7,8.9-9.3,11.4c8.7,0.3,14-0.1,15.8-1.3
		l1.4,0.9l-9.5,9.8c-12.3-0.6-19.1-0.1-20.2,1.7l-1.4-0.2c5.3-5.1,9.1-9.5,11.2-13.1l-0.1-6.3l0.1-26.9c1.2-5.1,4.1-8.8,8.6-11.2
		l-25.4,0c-2.7,0.1-4.6,1.3-5.8,3.7l-1.9-0.7L364.5,7.3z"/>
	<path class="st0" d="M429.7,28.7c2.8,0.5,6.1,2.4,9.7,5.6c3.7,3.2,5.8,7.1,6.5,11.8c0.6,4.6-0.8,9.6-4.2,14.8
		c-3.4,5.2-6.5,8.9-9.1,11c-2.6,2.1-5.7,3-9.1,2.6c-3.5-0.4-7.5-3-12.1-7.7c-4.6-4.8-6.5-10.2-5.7-16.1c0.8-5.9,3.3-10.8,7.6-14.6
		c4.3-3.8,7.4-6.1,9.3-6.9C424.5,28.3,426.9,28.2,429.7,28.7z M413.3,43.3c-0.6,3.7,0.7,8.1,3.8,13.2c3.1,5.1,6.5,7.9,10.2,8.3
		c3.7,0.4,6.5-0.4,8.4-2.5c1.9-2.1,2.6-5.1,2.1-9.1c-0.5-4-2.7-7.9-6.7-11.5c-4-3.6-7.8-5.1-11.4-4.6S413.9,39.7,413.3,43.3z"/>
	<path class="st1" d="M455.1,7.2l15.1-0.1c10.4-0.5,19.1,2.2,26.1,8.1c7,5.9,11,12.7,11.9,20.3c1,7.6-0.7,13.8-4.9,18.6
		c-4.2,4.8-7.7,8.3-10.2,10.6s-5,4.3-7.2,6c-2.2,1.7-5.5,3-9.8,4l-29.8-0.5l-0.5-1.2c7.4-7.3,10.9-12.2,10.6-14.6l0.1-29.5
		c0.2-3.1,2.9-6.8,8-11.4l-14,0.2l-3.4,3.7l-1.9-0.7L455.1,7.2z M469.4,17.3c-3,0.3-4.1,2-3.3,5.2l-0.2,28.3
		c-0.5,3.4-3.2,7.6-8,12.7l32.2-0.1c2.8-1.3,5.4-4.4,7.7-9.3c2.3-4.8,2.1-10.3-0.7-16.5c-2.8-6.2-6.9-11.1-12.3-14.8
		C479.3,19,474.2,17.2,469.4,17.3z"/>
	<path class="st1" d="M529.7,28.6l19.2-0.1c-2,0.8-3,2.4-3.1,4.9v24.3c-0.1,2,0.4,3.6,1.7,5c1.2,1.3,2.8,1.6,4.8,0.9l2.5-2.4
		l1.9,1.2l-11.3,12.1c-5-1.8-8-4.5-9-8.1c-2.7,2-6.2,4.6-10.5,7.7c-2.4-0.3-5.7-2.9-10.1-7.9c-4.4-5-6.4-9.3-6.1-13
		c0.3-3.6,2.6-8,6.8-13.2C520.6,34.8,525,31,529.7,28.6z M523,36.5c-5.2,7.7-5.4,14.7-0.5,21c4.9,6.3,9,8.3,12.4,6V41.8V40l2-3.4
		H523z"/>
	<path class="st1" d="M558.2,87.6l9.5-9.4c4.1,4.4,8.7,6.6,14,6.6c5.3,0,7.7-4.6,7.1-14V65c-3.7,3.8-8.2,6.9-13.5,9.5
		c-8.3-2.4-12.7-7.2-13.2-14.5V43.9c-0.1-4.6-1.3-6.4-3.6-5.3l-3.6,3l-1.1-1.9l13-11.3c4.5,0.7,6.7,3.6,6.7,8.5l-0.1,18.6
		c0.6,5.7,2.8,8.7,6.4,9s6.4-1,8.4-3.8v-16c0.3-4.9-0.7-7.3-3-7.2l-3.7,3.1l-1.3-1.6l12.4-10.8c4,0.7,6.3,3.6,7.1,8.5v32.1
		c-1.3,7.4-6.3,14.1-15.1,20C576.1,94.6,567.2,94.3,558.2,87.6z"/>
</g>
<g>
	<path class="st2" d="M9.4,51L9.4,51c-1.1,0-2-0.9-2-2l0,0c0-1.1,0.9-2,2-2l0,0c1.1,0,2,0.9,2,2l0,0C11.4,50.1,10.5,51,9.4,51z"/>
	<path class="st2" d="M17.5,51L17.5,51c-1.1,0-2-0.9-2-2l0,0c0-1.1,0.9-2,2-2l0,0c1.1,0,2,0.9,2,2l0,0C19.5,50.1,18.6,51,17.5,51z"
		/>
	<path class="st2" d="M26.5,51L26.5,51c-1.1,0-2-0.9-2-2l0,0c0-1.1,0.9-2,2-2l0,0c1.1,0,2,0.9,2,2l0,0C28.5,50.1,27.6,51,26.5,51z"
		/>
	<path class="st2" d="M35.3,51L35.3,51c-1.1,0-2-0.9-2-2l0,0c0-1.1,0.9-2,2-2l0,0c1.1,0,2,0.9,2,2l0,0C37.3,50.1,36.4,51,35.3,51z"
		/>
	<path class="st2" d="M44.1,51L44.1,51c-1.1,0-2-0.9-2-2l0,0c0-1.1,0.9-2,2-2l0,0c1.1,0,2,0.9,2,2l0,0C46.1,50.1,45.2,51,44.1,51z"
		/>
	<path class="st2" d="M52.9,51L52.9,51c-1.1,0-2-0.9-2-2l0,0c0-1.1,0.9-2,2-2l0,0c1.1,0,2,0.9,2,2l0,0C54.9,50.1,54,51,52.9,51z"/>
	<path class="st2" d="M61.2,51L61.2,51c-1.1,0-2-0.9-2-2l0,0c0-1.1,0.9-2,2-2l0,0c1.1,0,2,0.9,2,2l0,0C63.2,50.1,62.3,51,61.2,51z"
		/>
	<path class="st2" d="M70.5,51L70.5,51c-1.1,0-2-0.9-2-2l0,0c0-1.1,0.9-2,2-2l0,0c1.1,0,2,0.9,2,2l0,0C72.5,50.1,71.6,51,70.5,51z"
		/>
	<path class="st2" d="M78.6,51L78.6,51c-1.1,0-2-0.9-2-2l0,0c0-1.1,0.9-2,2-2l0,0c1.1,0,2,0.9,2,2l0,0C80.6,50.1,79.7,51,78.6,51z"
		/>
	<path class="st2" d="M87.6,51L87.6,51c-1.1,0-2-0.9-2-2l0,0c0-1.1,0.9-2,2-2l0,0c1.1,0,2,0.9,2,2l0,0C89.6,50.1,88.7,51,87.6,51z"
		/>
	<path class="st2" d="M96.4,51L96.4,51c-1.1,0-2-0.9-2-2l0,0c0-1.1,0.9-2,2-2l0,0c1.1,0,2,0.9,2,2l0,0C98.4,50.1,97.5,51,96.4,51z"
		/>
	<path class="st2" d="M105.2,51L105.2,51c-1.1,0-2-0.9-2-2l0,0c0-1.1,0.9-2,2-2l0,0c1.1,0,2,0.9,2,2l0,0
		C107.2,50.1,106.3,51,105.2,51z"/>
	<path class="st2" d="M114,51L114,51c-1.1,0-2-0.9-2-2l0,0c0-1.1,0.9-2,2-2l0,0c1.1,0,2,0.9,2,2l0,0C116,50.1,115.1,51,114,51z"/>
	<path class="st2" d="M122.3,51L122.3,51c-1.1,0-2-0.9-2-2l0,0c0-1.1,0.9-2,2-2l0,0c1.1,0,2,0.9,2,2l0,0
		C124.3,50.1,123.4,51,122.3,51z"/>
	<path class="st2" d="M131.8,51L131.8,51c-1.1,0-2-0.9-2-2l0,0c0-1.1,0.9-2,2-2l0,0c1.1,0,2,0.9,2,2l0,0
		C133.8,50.1,132.9,51,131.8,51z"/>
	<path class="st2" d="M139.9,51L139.9,51c-1.1,0-2-0.9-2-2l0,0c0-1.1,0.9-2,2-2l0,0c1.1,0,2,0.9,2,2l0,0C141.9,50.1,141,51,139.9,51
		z"/>
	<path class="st2" d="M148.9,51L148.9,51c-1.1,0-2-0.9-2-2l0,0c0-1.1,0.9-2,2-2l0,0c1.1,0,2,0.9,2,2l0,0C150.9,50.1,150,51,148.9,51
		z"/>
	<path class="st2" d="M157.7,51L157.7,51c-1.1,0-2-0.9-2-2l0,0c0-1.1,0.9-2,2-2l0,0c1.1,0,2,0.9,2,2l0,0
		C159.7,50.1,158.8,51,157.7,51z"/>
	<path class="st2" d="M166.5,51L166.5,51c-1.1,0-2-0.9-2-2l0,0c0-1.1,0.9-2,2-2l0,0c1.1,0,2,0.9,2,2l0,0
		C168.5,50.1,167.6,51,166.5,51z"/>
	<path class="st2" d="M175.3,51L175.3,51c-1.1,0-2-0.9-2-2l0,0c0-1.1,0.9-2,2-2l0,0c1.1,0,2,0.9,2,2l0,0
		C177.3,50.1,176.4,51,175.3,51z"/>
	<path class="st2" d="M183.6,51L183.6,51c-1.1,0-2-0.9-2-2l0,0c0-1.1,0.9-2,2-2l0,0c1.1,0,2,0.9,2,2l0,0
		C185.6,50.1,184.7,51,183.6,51z"/>
	<path class="st2" d="M192.8,51L192.8,51c-1.1,0-2-0.9-2-2l0,0c0-1.1,0.9-2,2-2l0,0c1.1,0,2,0.9,2,2l0,0
		C194.8,50.1,193.9,51,192.8,51z"/>
	<path class="st2" d="M201,51L201,51c-1.1,0-2-0.9-2-2l0,0c0-1.1,0.9-2,2-2l0,0c1.1,0,2,0.9,2,2l0,0C203,50.1,202.1,51,201,51z"/>
	<path class="st2" d="M210,51L210,51c-1.1,0-2-0.9-2-2l0,0c0-1.1,0.9-2,2-2l0,0c1.1,0,2,0.9,2,2l0,0C212,50.1,211.1,51,210,51z"/>
	<path class="st2" d="M218.8,51L218.8,51c-1.1,0-2-0.9-2-2l0,0c0-1.1,0.9-2,2-2l0,0c1.1,0,2,0.9,2,2l0,0
		C220.8,50.1,219.9,51,218.8,51z"/>
	<path class="st2" d="M227.5,51L227.5,51c-1.1,0-2-0.9-2-2l0,0c0-1.1,0.9-2,2-2l0,0c1.1,0,2,0.9,2,2l0,0
		C229.5,50.1,228.6,51,227.5,51z"/>
	<path class="st2" d="M236.3,51L236.3,51c-1.1,0-2-0.9-2-2l0,0c0-1.1,0.9-2,2-2l0,0c1.1,0,2,0.9,2,2l0,0
		C238.3,50.1,237.4,51,236.3,51z"/>
	<path class="st2" d="M244.7,51L244.7,51c-1.1,0-2-0.9-2-2l0,0c0-1.1,0.9-2,2-2l0,0c1.1,0,2,0.9,2,2l0,0
		C246.7,50.1,245.8,51,244.7,51z"/>
	<path class="st2" d="M254.3,51L254.3,51c-1.1,0-2-0.9-2-2l0,0c0-1.1,0.9-2,2-2l0,0c1.1,0,2,0.9,2,2l0,0
		C256.3,50.1,255.4,51,254.3,51z"/>
	<path class="st2" d="M262.5,51L262.5,51c-1.1,0-2-0.9-2-2l0,0c0-1.1,0.9-2,2-2l0,0c1.1,0,2,0.9,2,2l0,0
		C264.5,50.1,263.6,51,262.5,51z"/>
	<path class="st2" d="M271.5,51L271.5,51c-1.1,0-2-0.9-2-2l0,0c0-1.1,0.9-2,2-2l0,0c1.1,0,2,0.9,2,2l0,0
		C273.5,50.1,272.6,51,271.5,51z"/>
	<path class="st2" d="M280.3,51L280.3,51c-1.1,0-2-0.9-2-2l0,0c0-1.1,0.9-2,2-2l0,0c1.1,0,2,0.9,2,2l0,0
		C282.3,50.1,281.4,51,280.3,51z"/>
	<path class="st2" d="M289,51L289,51c-1.1,0-2-0.9-2-2l0,0c0-1.1,0.9-2,2-2l0,0c1.1,0,2,0.9,2,2l0,0C291,50.1,290.1,51,289,51z"/>
	<path class="st2" d="M297.8,51L297.8,51c-1.1,0-2-0.9-2-2l0,0c0-1.1,0.9-2,2-2l0,0c1.1,0,2,0.9,2,2l0,0
		C299.8,50.1,298.9,51,297.8,51z"/>
	<path class="st2" d="M306.2,51L306.2,51c-1.1,0-2-0.9-2-2l0,0c0-1.1,0.9-2,2-2l0,0c1.1,0,2,0.9,2,2l0,0
		C308.2,50.1,307.3,51,306.2,51z"/>
	<path class="st2" d="M315.4,51L315.4,51c-1.1,0-2-0.9-2-2l0,0c0-1.1,0.9-2,2-2l0,0c1.1,0,2,0.9,2,2l0,0
		C317.4,50.1,316.5,51,315.4,51z"/>
	<path class="st2" d="M323.5,51L323.5,51c-1.1,0-2-0.9-2-2l0,0c0-1.1,0.9-2,2-2l0,0c1.1,0,2,0.9,2,2l0,0
		C325.5,50.1,324.6,51,323.5,51z"/>
	<path class="st2" d="M332.5,51L332.5,51c-1.1,0-2-0.9-2-2l0,0c0-1.1,0.9-2,2-2l0,0c1.1,0,2,0.9,2,2l0,0
		C334.5,50.1,333.6,51,332.5,51z"/>
	<path class="st2" d="M341.3,51L341.3,51c-1.1,0-2-0.9-2-2l0,0c0-1.1,0.9-2,2-2l0,0c1.1,0,2,0.9,2,2l0,0
		C343.3,50.1,342.4,51,341.3,51z"/>
	<path class="st2" d="M630,51L630,51c-1.1,0-2-0.9-2-2l0,0c0-1.1,0.9-2,2-2l0,0c1.1,0,2,0.9,2,2l0,0C632,50.1,631.1,51,630,51z"/>
	<path class="st2" d="M639,51L639,51c-1.1,0-2-0.9-2-2l0,0c0-1.1,0.9-2,2-2l0,0c1.1,0,2,0.9,2,2l0,0C641,50.1,640.1,51,639,51z"/>
	<path class="st2" d="M647.8,51L647.8,51c-1.1,0-2-0.9-2-2l0,0c0-1.1,0.9-2,2-2l0,0c1.1,0,2,0.9,2,2l0,0
		C649.8,50.1,648.9,51,647.8,51z"/>
	<path class="st2" d="M656.6,51L656.6,51c-1.1,0-2-0.9-2-2l0,0c0-1.1,0.9-2,2-2l0,0c1.1,0,2,0.9,2,2l0,0
		C658.6,50.1,657.7,51,656.6,51z"/>
	<path class="st2" d="M665.4,51L665.4,51c-1.1,0-2-0.9-2-2l0,0c0-1.1,0.9-2,2-2l0,0c1.1,0,2,0.9,2,2l0,0
		C667.4,50.1,666.5,51,665.4,51z"/>
	<path class="st2" d="M673.7,51L673.7,51c-1.1,0-2-0.9-2-2l0,0c0-1.1,0.9-2,2-2l0,0c1.1,0,2,0.9,2,2l0,0
		C675.7,50.1,674.8,51,673.7,51z"/>
	<path class="st2" d="M683,51L683,51c-1.1,0-2-0.9-2-2l0,0c0-1.1,0.9-2,2-2l0,0c1.1,0,2,0.9,2,2l0,0C685,50.1,684.1,51,683,51z"/>
	<path class="st2" d="M691.1,51L691.1,51c-1.1,0-2-0.9-2-2l0,0c0-1.1,0.9-2,2-2l0,0c1.1,0,2,0.9,2,2l0,0
		C693.1,50.1,692.2,51,691.1,51z"/>
	<path class="st2" d="M700.1,51L700.1,51c-1.1,0-2-0.9-2-2l0,0c0-1.1,0.9-2,2-2l0,0c1.1,0,2,0.9,2,2l0,0
		C702.1,50.1,701.2,51,700.1,51z"/>
	<path class="st2" d="M708.9,51L708.9,51c-1.1,0-2-0.9-2-2l0,0c0-1.1,0.9-2,2-2l0,0c1.1,0,2,0.9,2,2l0,0C710.9,50.1,710,51,708.9,51
		z"/>
	<path class="st2" d="M717.7,51L717.7,51c-1.1,0-2-0.9-2-2l0,0c0-1.1,0.9-2,2-2l0,0c1.1,0,2,0.9,2,2l0,0
		C719.7,50.1,718.8,51,717.7,51z"/>
	<path class="st2" d="M726.5,51L726.5,51c-1.1,0-2-0.9-2-2l0,0c0-1.1,0.9-2,2-2l0,0c1.1,0,2,0.9,2,2l0,0
		C728.5,50.1,727.6,51,726.5,51z"/>
	<path class="st2" d="M734.8,51L734.8,51c-1.1,0-2-0.9-2-2l0,0c0-1.1,0.9-2,2-2l0,0c1.1,0,2,0.9,2,2l0,0
		C736.8,50.1,735.9,51,734.8,51z"/>
	<path class="st2" d="M744.5,51L744.5,51c-1.1,0-2-0.9-2-2l0,0c0-1.1,0.9-2,2-2l0,0c1.1,0,2,0.9,2,2l0,0
		C746.5,50.1,745.6,51,744.5,51z"/>
	<path class="st2" d="M752.6,51L752.6,51c-1.1,0-2-0.9-2-2l0,0c0-1.1,0.9-2,2-2l0,0c1.1,0,2,0.9,2,2l0,0
		C754.6,50.1,753.7,51,752.6,51z"/>
	<path class="st2" d="M761.6,51L761.6,51c-1.1,0-2-0.9-2-2l0,0c0-1.1,0.9-2,2-2l0,0c1.1,0,2,0.9,2,2l0,0
		C763.6,50.1,762.7,51,761.6,51z"/>
	<path class="st2" d="M770.4,51L770.4,51c-1.1,0-2-0.9-2-2l0,0c0-1.1,0.9-2,2-2l0,0c1.1,0,2,0.9,2,2l0,0
		C772.4,50.1,771.5,51,770.4,51z"/>
	<path class="st2" d="M779.2,51L779.2,51c-1.1,0-2-0.9-2-2l0,0c0-1.1,0.9-2,2-2l0,0c1.1,0,2,0.9,2,2l0,0
		C781.2,50.1,780.3,51,779.2,51z"/>
	<path class="st2" d="M788,51L788,51c-1.1,0-2-0.9-2-2l0,0c0-1.1,0.9-2,2-2l0,0c1.1,0,2,0.9,2,2l0,0C790,50.1,789.1,51,788,51z"/>
	<path class="st2" d="M796.3,51L796.3,51c-1.1,0-2-0.9-2-2l0,0c0-1.1,0.9-2,2-2l0,0c1.1,0,2,0.9,2,2l0,0
		C798.3,50.1,797.4,51,796.3,51z"/>
	<path class="st2" d="M805.5,51L805.5,51c-1.1,0-2-0.9-2-2l0,0c0-1.1,0.9-2,2-2l0,0c1.1,0,2,0.9,2,2l0,0
		C807.5,50.1,806.6,51,805.5,51z"/>
	<path class="st2" d="M813.7,51L813.7,51c-1.1,0-2-0.9-2-2l0,0c0-1.1,0.9-2,2-2l0,0c1.1,0,2,0.9,2,2l0,0
		C815.7,50.1,814.8,51,813.7,51z"/>
	<path class="st2" d="M822.7,51L822.7,51c-1.1,0-2-0.9-2-2l0,0c0-1.1,0.9-2,2-2l0,0c1.1,0,2,0.9,2,2l0,0
		C824.7,50.1,823.8,51,822.7,51z"/>
	<path class="st2" d="M831.5,51L831.5,51c-1.1,0-2-0.9-2-2l0,0c0-1.1,0.9-2,2-2l0,0c1.1,0,2,0.9,2,2l0,0
		C833.5,50.1,832.6,51,831.5,51z"/>
	<path class="st2" d="M840.3,51L840.3,51c-1.1,0-2-0.9-2-2l0,0c0-1.1,0.9-2,2-2l0,0c1.1,0,2,0.9,2,2l0,0
		C842.3,50.1,841.4,51,840.3,51z"/>
	<path class="st2" d="M849,51L849,51c-1.1,0-2-0.9-2-2l0,0c0-1.1,0.9-2,2-2l0,0c1.1,0,2,0.9,2,2l0,0C851,50.1,850.1,51,849,51z"/>
	<path class="st2" d="M857.4,51L857.4,51c-1.1,0-2-0.9-2-2l0,0c0-1.1,0.9-2,2-2l0,0c1.1,0,2,0.9,2,2l0,0
		C859.4,50.1,858.5,51,857.4,51z"/>
	<path class="st2" d="M866.8,51L866.8,51c-1.1,0-2-0.9-2-2l0,0c0-1.1,0.9-2,2-2l0,0c1.1,0,2,0.9,2,2l0,0
		C868.8,50.1,867.9,51,866.8,51z"/>
	<path class="st2" d="M875,51L875,51c-1.1,0-2-0.9-2-2l0,0c0-1.1,0.9-2,2-2l0,0c1.1,0,2,0.9,2,2l0,0C877,50.1,876.1,51,875,51z"/>
	<path class="st2" d="M884,51L884,51c-1.1,0-2-0.9-2-2l0,0c0-1.1,0.9-2,2-2l0,0c1.1,0,2,0.9,2,2l0,0C886,50.1,885.1,51,884,51z"/>
	<path class="st2" d="M892.8,51L892.8,51c-1.1,0-2-0.9-2-2l0,0c0-1.1,0.9-2,2-2l0,0c1.1,0,2,0.9,2,2l0,0
		C894.8,50.1,893.9,51,892.8,51z"/>
	<path class="st2" d="M901.5,51L901.5,51c-1.1,0-2-0.9-2-2l0,0c0-1.1,0.9-2,2-2l0,0c1.1,0,2,0.9,2,2l0,0
		C903.5,50.1,902.6,51,901.5,51z"/>
	<path class="st2" d="M910.3,51L910.3,51c-1.1,0-2-0.9-2-2l0,0c0-1.1,0.9-2,2-2l0,0c1.1,0,2,0.9,2,2l0,0
		C912.3,50.1,911.4,51,910.3,51z"/>
	<path class="st2" d="M918.7,51L918.7,51c-1.1,0-2-0.9-2-2l0,0c0-1.1,0.9-2,2-2l0,0c1.1,0,2,0.9,2,2l0,0
		C920.7,50.1,919.8,51,918.7,51z"/>
	<path class="st2" d="M927.9,51L927.9,51c-1.1,0-2-0.9-2-2l0,0c0-1.1,0.9-2,2-2l0,0c1.1,0,2,0.9,2,2l0,0C929.9,50.1,929,51,927.9,51
		z"/>
	<path class="st2" d="M936,51L936,51c-1.1,0-2-0.9-2-2l0,0c0-1.1,0.9-2,2-2l0,0c1.1,0,2,0.9,2,2l0,0C938,50.1,937.1,51,936,51z"/>
	<path class="st2" d="M945,51L945,51c-1.1,0-2-0.9-2-2l0,0c0-1.1,0.9-2,2-2l0,0c1.1,0,2,0.9,2,2l0,0C947,50.1,946.1,51,945,51z"/>
	<path class="st2" d="M953.8,51L953.8,51c-1.1,0-2-0.9-2-2l0,0c0-1.1,0.9-2,2-2l0,0c1.1,0,2,0.9,2,2l0,0
		C955.8,50.1,954.9,51,953.8,51z"/>
	<path class="st2" d="M962.6,51L962.6,51c-1.1,0-2-0.9-2-2l0,0c0-1.1,0.9-2,2-2l0,0c1.1,0,2,0.9,2,2l0,0
		C964.6,50.1,963.7,51,962.6,51z"/>
	<path class="st2" d="M971.4,51L971.4,51c-1.1,0-2-0.9-2-2l0,0c0-1.1,0.9-2,2-2l0,0c1.1,0,2,0.9,2,2l0,0
		C973.4,50.1,972.5,51,971.4,51z"/>
	<path class="st2" d="M979.8,51L979.8,51c-1.1,0-2-0.9-2-2l0,0c0-1.1,0.9-2,2-2l0,0c1.1,0,2,0.9,2,2l0,0
		C981.8,50.1,980.9,51,979.8,51z"/>
	<path class="st2" d="M989.5,51L989.5,51c-1.1,0-2-0.9-2-2l0,0c0-1.1,0.9-2,2-2l0,0c1.1,0,2,0.9,2,2l0,0
		C991.5,50.1,990.6,51,989.5,51z"/>
</g>
</svg>
