<?xml version="1.0" encoding="utf-8"?>
<!-- Generator: Adobe Illustrator 19.2.1, SVG Export Plug-In . SVG Version: 6.00 Build 0)  -->
<svg version="1.1" id="Слой_1" xmlns="http://www.w3.org/2000/svg" xmlns:xlink="http://www.w3.org/1999/xlink" x="0px" y="0px"
	 viewBox="0 0 370 192" style="enable-background:new 0 0 370 192;" xml:space="preserve">
<style type="text/css">
	.st0{fill:#FFFFFF;}
</style>
<g>
	<path d="M97.8,53.8c4.5,2.1,8,5.3,10.4,9.5L93,79.5l-2-1.6c3.7-4.2,3.8-8,0.3-11.3c-3.5-3.3-8.4-4.8-14.7-4.3
		c-6.3,0.4-9.5,2.7-9.8,6.7c-0.3,4,6.1,8.8,19.1,14.2c13,5.4,21.1,9.2,24.4,11.5c3.3,2.2,5.3,6.2,6.1,11.8
		c0.8,5.6-0.6,11.1-4.1,16.3c-3.5,5.3-7.9,10-13.3,14.1c-5.4,4.2-11,6.1-16.8,5.9c-5.8-0.2-11.2-1.6-16-4.1
		c-4.9-2.5-9.2-6.2-12.9-11c-3.8-4.8-5-8.9-3.7-12.5l13.4-13.8l1.1,1.1c-2.3,4.8-2.1,8.8,0.6,11.9c2.7,3.1,6.7,6.1,12,9
		c5.3,2.9,10.6,4.6,15.9,5.1c5.2,0.5,9.2-0.8,11.9-3.8c2.7-3.1,3-6.2,0.9-9.5c-2.1-3.3-8.9-7.3-20.5-12
		c-11.6-4.7-19.3-8.9-23.3-12.6c-4-3.7-5.6-8.1-4.9-13.1c0.8-5.1,3.2-9.9,7.2-14.4c4-4.6,9.6-7.8,16.7-9.7
		C87.6,51.6,93.4,51.7,97.8,53.8z"/>
	<path d="M147.6,56.3l1.5,1.3c-3.8,3.3-5.6,6.3-5.4,8.9v13.7v1.3h22.7l0.8,1.9l-10.6,9.8h-12v13.6v15.6c4.1,9,9.8,9.6,17.3,1.8
		l2.6,3.1l-19.6,15.2c-8-3.4-12.8-8.6-14.3-15.7l0.1-32.9c-5.4-1-9.5,0.8-12.1,5.5l-2.6-1.5l10.8-16.3l3.6-0.1l-0.2-6.3
		c0.4-4.3,2.9-8.3,7.6-12.3C142.4,58.9,145.7,56.7,147.6,56.3z"/>
	<path d="M195,81.5l25.3-0.1c-2.6,1.1-3.9,3.2-4.1,6.5v32c-0.2,2.6,0.6,4.8,2.2,6.6c1.6,1.8,3.7,2.2,6.3,1.1l3.3-3.1l2.5,1.5
		L215.5,142c-6.6-2.4-10.5-5.9-11.9-10.7c-3.5,2.6-8.1,6-13.9,10.2c-3.1-0.4-7.6-3.8-13.3-10.5c-5.8-6.6-8.4-12.3-8-17.1
		c0.4-4.8,3.4-10.6,9-17.4C183.1,89.8,188.9,84.8,195,81.5z M186.2,92.1c-6.9,10.2-7.1,19.4-0.6,27.7c6.5,8.3,11.9,10.9,16.3,7.9
		V99.1v-2.5l2.6-4.5H186.2z"/>
	<path d="M241.3,81.7c6.9,0.8,10.7,4.1,11.6,9.8c1.8-3.3,3.9-6,6.5-8.1c2.6-2.1,5.8-2.7,9.5-2c3.7,0.8,7.2,3.4,10.5,7.8L266.6,98
		c-2.9-4.8-5.6-7.1-8.3-6.9c-2.6,0.2-4.1,2.9-4.5,8.1v26.1c0.1,4.3,2.7,5,7.9,2.1l1.1,1.3L248,141.6c-5.2-1-8.4-4.7-9.4-11.1v-27
		c0.3-5-0.5-7.9-2.4-8.7c-1.9-0.8-4.5,0.7-7.7,4.4l-2-1.3L241.3,81.7z"/>
	<path d="M304.5,56.3l1.5,1.3c-3.8,3.3-5.6,6.3-5.4,8.9v13.7v1.3h22.7l0.8,1.9l-10.6,9.8h-12v13.6v15.6c4.1,9,9.8,9.6,17.3,1.8
		l2.6,3.1l-19.6,15.2c-8-3.4-12.8-8.6-14.3-15.7l0.1-32.9c-5.4-1-9.5,0.8-12.1,5.5l-2.6-1.5l10.8-16.3l3.6-0.1l-0.2-6.3
		c0.4-4.3,2.9-8.3,7.6-12.3C299.3,58.9,302.6,56.7,304.5,56.3z"/>
</g>
<g>
	<path class="st0" d="M96.8,51.6c4.5,2.1,8,5.3,10.4,9.5L92,77.4l-2-1.6c3.7-4.2,3.8-8,0.3-11.3c-3.5-3.3-8.4-4.8-14.7-4.3
		c-6.3,0.4-9.5,2.7-9.8,6.7c-0.3,4,6.1,8.8,19.1,14.2c13,5.4,21.1,9.2,24.4,11.5c3.3,2.2,5.3,6.2,6.1,11.8
		c0.8,5.6-0.6,11.1-4.1,16.3c-3.5,5.3-7.9,10-13.3,14.1c-5.4,4.2-11,6.1-16.8,5.9c-5.8-0.2-11.2-1.6-16-4.1
		c-4.9-2.5-9.2-6.2-12.9-11c-3.8-4.8-5-8.9-3.7-12.5l13.4-13.8l1.1,1.1c-2.3,4.8-2.1,8.8,0.6,11.9c2.7,3.1,6.7,6.1,12,9
		c5.3,2.9,10.6,4.6,15.9,5.1c5.2,0.5,9.2-0.8,11.9-3.8c2.7-3.1,3-6.2,0.9-9.5c-2.1-3.3-8.9-7.3-20.5-12
		c-11.6-4.7-19.3-8.9-23.3-12.6c-4-3.7-5.6-8.1-4.9-13.1c0.8-5.1,3.2-9.9,7.2-14.4c4-4.6,9.6-7.8,16.7-9.7
		C86.6,49.4,92.4,49.5,96.8,51.6z"/>
	<path class="st0" d="M146.6,54.1l1.5,1.3c-3.8,3.3-5.6,6.3-5.4,8.9V78v1.3h22.7l0.8,1.9L155.6,91h-12v13.6v15.6
		c4.1,9,9.8,9.6,17.3,1.8l2.6,3.1l-19.6,15.2c-8-3.4-12.8-8.6-14.3-15.7l0.1-32.9c-5.4-1-9.5,0.8-12.1,5.5l-2.6-1.5l10.8-16.3
		l3.6-0.1l-0.2-6.3c0.4-4.3,2.9-8.3,7.6-12.3C141.4,56.7,144.7,54.5,146.6,54.1z"/>
	<path class="st0" d="M194,79.4l25.3-0.1c-2.6,1.1-3.9,3.2-4.1,6.5v32c-0.2,2.6,0.6,4.8,2.2,6.6c1.6,1.8,3.7,2.2,6.3,1.1l3.3-3.1
		l2.5,1.5l-14.9,15.9c-6.6-2.4-10.5-5.9-11.9-10.7c-3.5,2.6-8.1,6-13.9,10.2c-3.1-0.4-7.6-3.8-13.3-10.5c-5.8-6.6-8.4-12.3-8-17.1
		c0.4-4.8,3.4-10.6,9-17.4C182.1,87.6,187.9,82.6,194,79.4z M185.2,89.9c-6.9,10.2-7.1,19.4-0.6,27.7c6.5,8.3,11.9,10.9,16.3,7.9
		V96.9v-2.5l2.6-4.5H185.2z"/>
	<path class="st0" d="M240.3,79.6c6.9,0.8,10.7,4.1,11.6,9.8c1.8-3.3,3.9-6,6.5-8.1c2.6-2.1,5.8-2.7,9.5-2c3.7,0.8,7.2,3.4,10.5,7.8
		l-12.8,8.7c-2.9-4.8-5.6-7.1-8.3-6.9c-2.6,0.2-4.1,2.9-4.5,8.1v26.1c0.1,4.3,2.7,5,7.9,2.1l1.1,1.3L247,139.4
		c-5.2-1-8.4-4.7-9.4-11.1v-27c0.3-5-0.5-7.9-2.4-8.7c-1.9-0.8-4.5,0.7-7.7,4.4l-2-1.3L240.3,79.6z"/>
	<path class="st0" d="M303.5,54.1l1.5,1.3c-3.8,3.3-5.6,6.3-5.4,8.9V78v1.3h22.7l0.8,1.9L312.4,91h-12v13.6v15.6
		c4.1,9,9.8,9.6,17.3,1.8l2.6,3.1l-19.6,15.2c-8-3.4-12.8-8.6-14.3-15.7l0.1-32.9c-5.4-1-9.5,0.8-12.1,5.5l-2.6-1.5l10.8-16.3
		l3.6-0.1l-0.2-6.3c0.4-4.3,2.9-8.3,7.6-12.3C298.3,56.7,301.6,54.5,303.5,54.1z"/>
</g>
</svg>
