<?xml version="1.0" encoding="utf-8"?>
<!-- Generator: Adobe Illustrator 19.2.1, SVG Export Plug-In . SVG Version: 6.00 Build 0)  -->
<svg version="1.1" id="Слой_1" xmlns="http://www.w3.org/2000/svg" xmlns:xlink="http://www.w3.org/1999/xlink" x="0px" y="0px"
	 viewBox="0 0 93.9 89.7" style="enable-background:new 0 0 93.9 89.7;" xml:space="preserve">
<style type="text/css">
	.st0{fill:#010202;}
</style>
<g transform="translate(0,-952.36218)">
	<path class="st0" d="M21.5,1038.9c-1.7-0.1-2.9-1.5-2.9-3.1c0-0.2,0-0.4,0.1-0.6l6.8-27.2L4,990c-1.3-1.1-1.4-3-0.4-4.2
		c0.5-0.6,1.3-1,2.1-1.1l27.9-2l10.5-25.9c0.6-1.5,2.4-2.3,3.9-1.7c0.8,0.3,1.4,0.9,1.7,1.7l10.5,25.9l27.9,2
		c1.7,0.1,2.9,1.5,2.8,3.2c-0.1,0.8-0.4,1.6-1.1,2.1l-21.5,18l6.8,27.2c0.4,1.6-0.6,3.2-2.2,3.6c-0.8,0.2-1.6,0.1-2.3-0.4
		l-23.7-14.8l-23.7,14.8C22.7,1038.8,22.1,1039,21.5,1038.9z M26.3,1029.5l19.1-11.9c1-0.6,2.2-0.6,3.2,0l19.1,11.9l-5.4-21.8
		c-0.3-1.1,0.1-2.3,1-3l17.2-14.5l-22.4-1.6c-1.1-0.1-2.1-0.8-2.6-1.9L46.9,966l-8.4,20.8c-0.4,1.1-1.4,1.8-2.6,1.9l-22.4,1.6
		l17.2,14.5c0.9,0.7,1.2,1.9,1,3C31.7,1007.7,26.3,1029.5,26.3,1029.5z"/>
</g>
</svg>
